<svg height="512" viewBox="0 0 512 512" width="512" xmlns="http://www.w3.org/2000/svg"><g id="Filled_outline" data-name="Filled outline"><rect fill="#cececc" height="328" rx="24" width="368" x="120" y="96"/><path d="m488 368a24 24 0 0 1 -24 24h-320a24 24 0 0 1 -24-24v-288a24 24 0 0 1 24-24h320a24 24 0 0 1 24 24z" fill="#d5d5d3"/><path d="m144 56h320a24 24 0 0 1 24 24v64a0 0 0 0 1 0 0h-368a0 0 0 0 1 0 0v-64a24 24 0 0 1 24-24z" fill="#d65246"/><g fill="#dfdfdd"><rect height="64" rx="16" width="32" x="168" y="24"/><rect height="64" rx="16" width="32" x="248" y="24"/><rect height="64" rx="16" width="32" x="328" y="24"/><rect height="64" rx="16" width="32" x="408" y="24"/></g><path d="m24 344h416v48h-416z" fill="#eaeae8"/><rect fill="#34507b" height="240" rx="24" width="48" x="104" y="248"/><rect fill="#2f486e" height="176" rx="24" width="48" x="56" y="280"/><rect fill="#34507b" height="240" rx="24" transform="matrix(-1 0 0 -1 672 736)" width="48" x="312" y="248"/><rect fill="#2f486e" height="176" rx="24" transform="matrix(-1 0 0 -1 768 736)" width="48" x="360" y="280"/><path d="m176 416h112v16h-112z"/><path d="m464 48h-16v-8a24 24 0 0 0 -48 0v8h-32v-8a24 24 0 0 0 -48 0v8h-32v-8a24 24 0 0 0 -48 0v8h-32v-8a24 24 0 0 0 -48 0v8h-16a32.036 32.036 0 0 0 -32 32h16a16.019 16.019 0 0 1 16-16h16v8a24 24 0 0 0 48 0v-8h32v8a24 24 0 0 0 48 0v-8h32v8a24 24 0 0 0 48 0v-8h32v8a24 24 0 0 0 48 0v-8h16a16.019 16.019 0 0 1 16 16v56h-352v-40h-16v128h16v-72h352v216a16.019 16.019 0 0 1 -16 16v16a31.8 31.8 0 0 0 16-4.305v4.305a16.019 16.019 0 0 1 -16 16h-32v16h32a32.036 32.036 0 0 0 32-32v-320a32.036 32.036 0 0 0 -32-32zm-272 24a8 8 0 0 1 -16 0v-32a8 8 0 0 1 16 0zm80 0a8 8 0 0 1 -16 0v-32a8 8 0 0 1 16 0zm80 0a8 8 0 0 1 -16 0v-32a8 8 0 0 1 16 0zm80 0a8 8 0 0 1 -16 0v-32a8 8 0 0 1 16 0z"/><path d="m232 176h16v16h-16z"/><path d="m168 176h16v16h-16z"/><path d="m360 176h16v16h-16z"/><path d="m424 176h16v16h-16z"/><path d="m296 176h16v16h-16z"/><path d="m232 232h16v16h-16z"/><path d="m168 232h16v16h-16z"/><path d="m360 232h16v16h-16z"/><path d="m424 232h16v16h-16z"/><path d="m296 232h16v16h-16z"/><path d="m232 288h16v16h-16z"/><path d="m168 288h16v16h-16z"/><path d="m424 288h16v16h-16z"/><path d="m440 400a8 8 0 0 0 8-8v-48a8 8 0 0 0 -8-8h-24v-32a31.976 31.976 0 0 0 -48-27.695v-4.305a32 32 0 0 0 -64 0v16h-8v16h8v32h-144v-64a32 32 0 0 0 -64 0v4.305a31.957 31.957 0 0 0 -39.85 6.36l11.922 10.67a16 16 0 0 1 27.928 10.665v128a16 16 0 0 1 -32 0v-128h-16v32h-24a8 8 0 0 0 -8 8v48a8 8 0 0 0 8 8h24v32a31.976 31.976 0 0 0 48 27.7v4.3a32 32 0 0 0 64 0v-64h128v-16h-128v-32h144v112a32 32 0 0 0 64 0v-4.3a31.976 31.976 0 0 0 48-27.7v-32zm-408-16v-32h16v32zm112 80a16 16 0 0 1 -32 0v-192a16 16 0 0 1 32 0zm208 0a16 16 0 0 1 -32 0v-192a16 16 0 0 1 32 0zm48-32a16 16 0 0 1 -32 0v-128a16 16 0 0 1 32 0zm32-80v32h-16v-32z"/></g></svg>