<svg id="Capa_1" enable-background="new 0 0 512 512" height="512" viewBox="0 0 512 512" width="512" xmlns="http://www.w3.org/2000/svg"><g><path d="m289.903 52.667h30.982c8.93 0 17.008 3.658 22.876 9.496 5.84 5.869 9.497 13.977 9.497 22.877v24.265c0 4.139-3.374 7.484-7.513 7.484s-7.512-3.346-7.512-7.484v-24.265c0-4.764-1.928-9.1-5.103-12.246-3.146-3.146-7.455-5.102-12.246-5.102h-30.982c-1.446 6.291-4.65 11.961-9.072 16.383-6.151 6.152-14.598 9.949-23.924 9.949h-137.142c-9.327 0-17.802-3.797-23.924-9.949-4.423-4.422-7.654-10.092-9.1-16.383h-30.982c-4.763 0-9.1 1.955-12.247 5.102-3.146 3.146-5.102 7.482-5.102 12.246v336.393c0 4.139-3.345 7.484-7.483 7.484s-7.512-3.346-7.512-7.484v-336.393c0-8.9 3.629-17.008 9.496-22.877 5.868-5.838 13.946-9.496 22.848-9.496h30.982c1.445-6.293 4.677-11.961 9.1-16.383 6.122-6.153 14.598-9.952 23.924-9.952h11.707c1.446-6.32 4.678-11.961 9.1-16.383 6.124-6.152 14.599-9.949 23.896-9.949h47.708c9.326 0 17.773 3.797 23.925 9.949 4.422 4.422 7.654 10.062 9.072 16.383h11.735c9.326 0 17.772 3.799 23.924 9.952 4.422 4.422 7.626 10.09 9.072 16.383zm19.843 266.66c4.167 0 7.512 3.373 7.512 7.512s-3.345 7.482-7.512 7.482h-156.447c-4.139 0-7.512-3.344-7.512-7.482 0-4.139 3.373-7.512 7.512-7.512zm0-81.526c4.167 0 7.512 3.346 7.512 7.484 0 4.139-3.345 7.512-7.512 7.512h-156.447c-4.139 0-7.512-3.373-7.512-7.512s3.373-7.484 7.512-7.484zm0-81.555c4.167 0 7.512 3.346 7.512 7.513 0 4.139-3.345 7.484-7.512 7.484h-156.447c-4.139 0-7.512-3.346-7.512-7.484 0-4.167 3.373-7.513 7.512-7.513zm-235.138 223.262h42.69c4.167 0 7.512 3.373 7.512 7.512v42.72c0 4.137-3.345 7.482-7.512 7.482h-42.69c-4.139 0-7.513-3.346-7.513-7.482v-42.72c0-4.139 3.374-7.512 7.513-7.512zm35.207 14.994h-27.723v27.724h27.723zm-35.207-96.521h42.69c4.167 0 7.512 3.346 7.512 7.484v42.717c0 4.14-3.345 7.515-7.512 7.515h-42.69c-4.139 0-7.513-3.375-7.513-7.515v-42.717c0-4.138 3.374-7.484 7.513-7.484zm35.207 14.997h-27.723v27.693h27.723zm-35.207-96.551h42.69c4.167 0 7.512 3.373 7.512 7.513v42.689c0 4.168-3.345 7.514-7.512 7.514h-42.69c-4.139 0-7.513-3.346-7.513-7.514v-42.689c0-4.14 3.374-7.513 7.513-7.513zm35.207 14.997h-27.723v27.723h27.723zm-35.207-96.522h42.69c4.167 0 7.512 3.344 7.512 7.482v42.72c0 4.139-3.345 7.512-7.512 7.512h-42.69c-4.139 0-7.513-3.373-7.513-7.512v-42.72c0-4.138 3.374-7.482 7.513-7.482zm35.207 14.994h-27.723v27.696h27.723zm218.214 270.46c-4.139 0-7.512-3.346-7.512-7.513 0-4.139 3.373-7.484 7.512-7.484h10.205v-262.095c0-4.139 3.373-7.482 7.512-7.482s7.513 3.344 7.513 7.482v262.096h28.715v-47.48c0-4.139 3.373-7.483 7.512-7.483h45.809c4.139 0 7.483 3.345 7.483 7.483v26.42h38.326c4.138 0 7.483 3.344 7.483 7.483v78.833c0 4.139-3.346 7.512-7.483 7.512h-38.326v26.392c0 4.139-3.345 7.482-7.483 7.482h-45.809c-4.139 0-7.512-3.344-7.512-7.482v-47.482h-28.715v22.622c0 8.9-3.657 17.008-9.497 22.846-5.868 5.869-13.946 9.496-22.876 9.496-88.357 0-176.743 0-265.128 0-8.902 0-16.98-3.627-22.848-9.496-5.867-5.838-9.496-13.945-9.496-22.846v-24.267c0-4.139 3.373-7.512 7.512-7.512s7.483 3.373 7.483 7.512v24.267c0 4.762 1.956 9.098 5.102 12.244 3.147 3.146 7.484 5.104 12.247 5.104h165.885v-18.88h-38.296c-4.139 0-7.512-3.373-7.512-7.512v-78.833c0-4.139 3.373-7.483 7.512-7.483h38.296v-26.42c0-4.139 3.374-7.483 7.513-7.483h45.808c4.139 0 7.483 3.345 7.483 7.483v47.48h11.595c4.139 0 7.512 3.346 7.512 7.484 0 4.167-3.373 7.513-7.512 7.513h-11.595v21.684h99.526v-21.684h-53.944zm10.205 36.68h-55.787v39.97h38.438c4.763 0 9.1-1.957 12.246-5.104 3.175-3.146 5.103-7.482 5.103-12.244zm104.543 6.067h30.812v-63.81h-30.812zm-251.919 0h30.785v-63.81h-30.785zm206.111 33.903h30.813v-131.615h-30.813zm-129.517 0c0-43.882 0-87.734 0-131.615h-30.785v131.615zm-55.277-482.012h-47.708c-5.158 0-9.864 2.127-13.294 5.557-3.401 3.4-5.527 8.107-5.527 13.296 0 4.137-3.374 7.482-7.512 7.482h-18.369c-5.188 0-9.893 2.127-13.323 5.557-3.402 3.4-5.528 8.135-5.528 13.293 0 5.16 2.126 9.894 5.528 13.295 3.43 3.43 8.135 5.557 13.323 5.557h137.143c5.188 0 9.893-2.127 13.294-5.557 3.431-3.4 5.557-8.135 5.557-13.295 0-5.158-2.126-9.893-5.557-13.293-3.401-3.43-8.107-5.557-13.294-5.557h-18.37c-4.167 0-7.512-3.346-7.512-7.482 0-5.188-2.126-9.895-5.527-13.296-3.43-3.43-8.136-5.557-13.324-5.557z"/></g></svg>